<?xml version="1.0" encoding="UTF-8" standalone="no"?>
<!-- Created with Inkscape (http://www.inkscape.org/) -->

<svg
   width="254mm"
   height="57.910343mm"
   viewBox="0 0 254 57.910343"
   version="1.1"
   id="svg1"
   inkscape:version="1.4.2 (f4327f4, 2025-05-13)"
   sodipodi:docname="EuroLeague logo.svg"
   xmlns:inkscape="http://www.inkscape.org/namespaces/inkscape"
   xmlns:sodipodi="http://sodipodi.sourceforge.net/DTD/sodipodi-0.dtd"
   xmlns="http://www.w3.org/2000/svg"
   xmlns:svg="http://www.w3.org/2000/svg">
  <sodipodi:namedview
     id="namedview1"
     pagecolor="#ffffff"
     bordercolor="#000000"
     borderopacity="0.25"
     inkscape:showpageshadow="2"
     inkscape:pageopacity="0.0"
     inkscape:pagecheckerboard="0"
     inkscape:deskcolor="#d1d1d1"
     inkscape:document-units="mm"
     inkscape:zoom="0.71891835"
     inkscape:cx="465.97781"
     inkscape:cy="292.80098"
     inkscape:window-width="1920"
     inkscape:window-height="1009"
     inkscape:window-x="-8"
     inkscape:window-y="-8"
     inkscape:window-maximized="1"
     inkscape:current-layer="layer1" />
  <defs
     id="defs1" />
  <g
     inkscape:label="Layer 1"
     inkscape:groupmode="layer"
     id="layer1"
     transform="translate(18.51702,-70.858612)">
    <g
       id="g10"
       transform="matrix(2.4361704,0,0,2.4361704,-18.51702,70.858681)"
       style="stroke-width:0.108606">
      <path
         class="cls-1"
         d="m 104.056,11.058 c -0.137,-0.33 -0.345,-0.624 -0.615,-0.873 -0.272,-0.249 -0.614,-0.448 -1.016,-0.592 -0.403,-0.144 -0.875,-0.217 -1.403,-0.218 -0.566,-10e-4 -1.088,0.092 -1.552,0.276 -0.463,0.183 -0.865,0.446 -1.194,0.783 -0.33,0.337 -0.588,0.746 -0.769,1.217 -0.182,0.471 -0.274,1.006 -0.276,1.589 -10e-4,0.631 0.096,1.184 0.29,1.646 0.194,0.463 0.467,0.852 0.813,1.155 0.346,0.303 0.757,0.534 1.225,0.684 0.47,0.149 0.989,0.221 1.542,0.227 0.545,0.005 1.155,-0.047 1.778,-0.225 0.405,-0.116 0.613,-0.276 0.694,-0.365 0.065,-0.072 0.113,-0.153 0.142,-0.242 0.023,-0.071 0.035,-0.147 0.035,-0.228 0,-0.187 -0.047,-0.356 -0.14,-0.502 -0.086,-0.138 -0.185,-0.243 -0.294,-0.312 h -0.002 c 0,0 -0.005,0 -0.007,0 -0.1,0.039 -0.281,0.095 -0.555,0.17 -0.326,0.089 -0.798,0.188 -1.404,0.187 -0.61,-0.001 -1.109,-0.14 -1.48,-0.413 -0.374,-0.273 -0.607,-0.612 -0.694,-1.008 l -0.012,-0.055 2.881,0.006 c 0.419,0 0.774,-0.042 1.054,-0.129 0.279,-0.086 0.506,-0.21 0.675,-0.369 0.169,-0.158 0.293,-0.353 0.371,-0.58 0.078,-0.227 0.119,-0.488 0.119,-0.774 0,-0.37 -0.069,-0.724 -0.207,-1.054 v 0 z m -1.719,1.479 c -0.105,0.14 -0.316,0.207 -0.644,0.207 l -2.575,-0.005 v -0.046 c 0,-0.219 0.04,-0.45 0.117,-0.69 0.077,-0.237 0.194,-0.46 0.348,-0.662 0.154,-0.2 0.349,-0.37 0.58,-0.504 0.232,-0.134 0.506,-0.202 0.814,-0.202 0.277,0 0.517,0.042 0.709,0.125 0.192,0.083 0.35,0.188 0.467,0.315 0.116,0.127 0.202,0.269 0.256,0.425 0.054,0.159 0.08,0.302 0.08,0.438 0,0.262 -0.052,0.463 -0.152,0.598 v 0 z"
         id="path1"
         style="fill:#101820;stroke-width:0.108606" />
      <path
         class="cls-1"
         d="M 71.27,10.185 C 70.998,9.936 70.656,9.737 70.254,9.593 69.851,9.449 69.379,9.376 68.851,9.375 68.285,9.374 67.763,9.467 67.299,9.651 c -0.462,0.183 -0.864,0.446 -1.194,0.783 -0.33,0.337 -0.588,0.746 -0.769,1.217 -0.182,0.471 -0.274,1.006 -0.276,1.589 -0.001,0.631 0.096,1.184 0.29,1.646 0.194,0.463 0.467,0.852 0.813,1.155 0.346,0.303 0.758,0.534 1.225,0.684 0.471,0.149 0.989,0.221 1.542,0.227 0.546,0.005 1.155,-0.047 1.778,-0.225 0.405,-0.116 0.613,-0.276 0.695,-0.365 0.065,-0.072 0.112,-0.153 0.142,-0.242 0.023,-0.071 0.035,-0.147 0.035,-0.228 0,-0.187 -0.046,-0.356 -0.14,-0.502 -0.086,-0.138 -0.185,-0.243 -0.294,-0.312 h -0.002 c 0,0 -0.006,0 -0.007,0 -0.1,0.039 -0.281,0.095 -0.556,0.17 -0.326,0.089 -0.798,0.188 -1.403,0.187 -0.61,-0.001 -1.109,-0.14 -1.481,-0.413 -0.374,-0.273 -0.607,-0.612 -0.694,-1.008 l -0.012,-0.055 2.881,0.006 c 0.419,0 0.774,-0.042 1.054,-0.129 0.279,-0.086 0.506,-0.21 0.675,-0.369 0.169,-0.159 0.293,-0.353 0.371,-0.58 0.078,-0.227 0.119,-0.488 0.119,-0.774 0,-0.37 -0.069,-0.724 -0.207,-1.054 -0.137,-0.33 -0.344,-0.624 -0.615,-0.873 h 10e-4 z m -1.102,2.352 c -0.105,0.14 -0.316,0.207 -0.644,0.207 l -2.575,-0.005 v -0.046 c 0,-0.219 0.04,-0.45 0.116,-0.69 0.077,-0.237 0.194,-0.46 0.349,-0.662 0.154,-0.2 0.349,-0.37 0.58,-0.504 0.232,-0.134 0.506,-0.202 0.813,-0.202 0.277,0 0.517,0.042 0.709,0.125 0.192,0.083 0.35,0.188 0.467,0.315 0.116,0.127 0.202,0.269 0.256,0.425 0.054,0.159 0.08,0.302 0.08,0.438 0,0.262 -0.051,0.463 -0.152,0.598 v 0 z"
         id="path2"
         style="fill:#101820;stroke-width:0.108606" />
      <path
         class="cls-1"
         d="M 78.401,10.034 C 78.062,9.797 77.654,9.627 77.188,9.529 76.717,9.431 76.191,9.381 75.622,9.381 c -0.297,0 -0.591,0.02 -0.877,0.057 -0.282,0.037 -0.535,0.1 -0.752,0.189 -0.214,0.087 -0.387,0.202 -0.514,0.344 -0.124,0.138 -0.186,0.308 -0.186,0.503 0,0.195 0.05,0.38 0.149,0.536 0.092,0.149 0.198,0.262 0.315,0.334 0.064,-0.039 0.144,-0.088 0.236,-0.149 0.111,-0.073 0.247,-0.146 0.403,-0.217 0.157,-0.072 0.348,-0.135 0.566,-0.187 0.22,-0.053 0.475,-0.08 0.76,-0.08 0.637,0 1.118,0.123 1.427,0.365 0.312,0.245 0.469,0.602 0.469,1.06 v 0.281 l -0.053,-0.009 c -0.028,-0.005 -0.128,-0.019 -0.49,-0.049 -0.281,-0.023 -0.637,-0.035 -1.056,-0.035 -0.445,0 -0.844,0.026 -1.192,0.076 H 74.82 c -0.006,10e-4 -0.011,0.002 -0.017,0.003 -0.027,0.003 -0.054,0.007 -0.08,0.011 -0.006,10e-4 -0.012,0.002 -0.017,0.003 -0.002,0 -0.003,0 -0.004,0 -0.053,0.009 -0.106,0.019 -0.156,0.03 -0.013,0.002 -0.024,0.005 -0.037,0.007 -0.017,0.004 -0.034,0.007 -0.05,0.011 -0.578,0.138 -0.944,0.393 -1.175,0.679 -0.278,0.345 -0.359,0.734 -0.375,1.018 v 0.065 c 0,0.112 0.006,0.223 0.019,0.332 v 0 c 0.03,0.254 0.092,0.498 0.189,0.73 0.138,0.333 0.346,0.629 0.618,0.879 0.273,0.251 0.615,0.451 1.017,0.595 0.372,0.133 1.092,0.212 1.535,0.212 0.798,0 1.397,-0.066 1.944,-0.117 0.334,-0.031 0.703,-0.096 0.885,-0.123 0.158,-0.022 0.237,-0.036 0.274,-0.043 l 0.055,-4.215 c 0.007,-0.595 -0.074,-1.103 -0.259,-1.498 -0.184,-0.393 -0.448,-0.712 -0.783,-0.949 h -0.001 z m -0.797,5.551 -0.036,0.007 c -0.098,0.022 -0.268,0.06 -0.484,0.079 -0.231,0.02 -0.463,0.028 -0.683,0.028 h -0.024 c -0.129,-0.003 -0.248,-0.011 -0.358,-0.024 -0.007,0 -0.013,-0.001 -0.02,-0.002 h -0.006 c -0.011,-10e-4 -0.022,-0.003 -0.033,-0.005 -0.834,-0.11 -1.17,-0.488 -1.311,-0.819 -0.048,-0.112 -0.134,-0.446 0.029,-0.778 0.02,-0.035 0.041,-0.069 0.067,-0.102 0.069,-0.091 0.165,-0.175 0.295,-0.25 0.087,-0.05 0.178,-0.092 0.273,-0.127 0.081,-0.03 0.163,-0.056 0.248,-0.077 0.166,-0.042 0.339,-0.067 0.509,-0.08 0.132,-0.01 0.264,-0.013 0.392,-0.011 0.428,0.007 0.805,0.07 1.001,0.11 0.053,0.007 0.089,0.014 0.112,0.022 l 0.032,0.01 v 2.019 h -0.002 z"
         id="path3"
         style="fill:#101820;stroke-width:0.108606" />
      <path
         class="cls-1"
         d="m 63.954,15.001 h -3.689 v -7.73 c 0,-0.2 -0.139,-0.24 -0.27,-0.24 h -0.597 c -0.747,0 -1.11,0.349 -1.11,1.065 v 8.622 h 6.658 v -0.687 c 0,-0.326 -0.092,-0.582 -0.274,-0.759 -0.289,-0.281 -0.71,-0.27 -0.717,-0.271 v 0 z"
         id="path4"
         style="fill:#101820;stroke-width:0.108606" />
      <path
         class="cls-1"
         d="m 42.281,9.553 c -0.304,0 -0.55,0.059 -0.732,0.177 -0.176,0.114 -0.266,0.326 -0.266,0.631 v 4.915 l -0.032,0.009 c -0.067,0.021 -0.168,0.037 -0.308,0.053 -0.138,0.013 -0.341,0.021 -0.605,0.021 -0.722,0 -1.251,-0.157 -1.573,-0.468 -0.321,-0.312 -0.484,-0.767 -0.484,-1.357 V 9.71 C 38.226,9.691 38.121,9.662 37.965,9.622 37.783,9.576 37.583,9.553 37.371,9.553 c -0.303,0 -0.55,0.059 -0.732,0.177 -0.176,0.114 -0.265,0.326 -0.265,0.631 v 3.372 c 0,1.045 0.333,1.844 0.989,2.378 0.659,0.536 1.722,0.807 3.16,0.807 0.337,0 0.66,-0.009 0.96,-0.028 0.31,-0.019 0.589,-0.038 0.842,-0.057 0.247,-0.019 0.456,-0.04 0.618,-0.063 0.125,-0.018 0.204,-0.032 0.245,-0.04 V 9.71 C 43.131,9.691 43.027,9.662 42.873,9.622 42.69,9.576 42.489,9.553 42.278,9.553 h 0.002 z"
         id="path5"
         style="fill:#101820;stroke-width:0.108606" />
      <path
         class="cls-1"
         d="M 48.748,9.536 C 48.572,9.462 48.364,9.406 48.13,9.368 47.898,9.331 47.646,9.312 47.382,9.312 c -0.432,0 -0.837,0.04 -1.203,0.119 -0.368,0.08 -0.696,0.171 -0.972,0.269 -0.279,0.1 -0.504,0.196 -0.67,0.288 -0.146,0.082 -0.243,0.138 -0.29,0.169 v 6.563 h 1.906 v -5.519 l 0.024,-0.013 c 0.089,-0.049 0.245,-0.115 0.463,-0.195 0.223,-0.082 0.54,-0.123 0.943,-0.123 0.132,0 0.271,0.009 0.427,0.028 0.158,0.022 0.293,0.048 0.412,0.08 0.131,0.035 0.239,0.068 0.332,0.101 0.074,0.026 0.129,0.05 0.167,0.074 0.068,-0.074 0.148,-0.177 0.238,-0.306 0.099,-0.144 0.149,-0.346 0.149,-0.6 0,-0.171 -0.048,-0.31 -0.146,-0.426 C 49.063,9.704 48.925,9.608 48.751,9.535 h -0.002 z"
         id="path6"
         style="fill:#101820;stroke-width:0.108606" />
      <path
         class="cls-1"
         d="M 56.268,10.429 C 55.928,10.09 55.513,9.815 55.035,9.613 54.557,9.413 54.016,9.312 53.427,9.312 c -0.589,0 -1.131,0.102 -1.609,0.301 -0.479,0.202 -0.895,0.477 -1.235,0.816 -0.341,0.341 -0.606,0.747 -0.788,1.209 -0.183,0.463 -0.276,0.968 -0.276,1.499 0,0.531 0.093,1.036 0.276,1.498 0.182,0.462 0.447,0.869 0.788,1.209 0.341,0.341 0.757,0.615 1.235,0.815 0.478,0.201 1.019,0.303 1.608,0.303 0.589,0 1.13,-0.102 1.608,-0.303 0.478,-0.201 0.893,-0.475 1.233,-0.815 0.341,-0.339 0.607,-0.746 0.79,-1.209 0.182,-0.463 0.274,-0.967 0.274,-1.498 0,-0.531 -0.092,-1.036 -0.274,-1.499 -0.183,-0.463 -0.449,-0.869 -0.79,-1.209 v 0 z m -0.994,3.625 c -0.082,0.285 -0.21,0.534 -0.379,0.742 -0.169,0.208 -0.378,0.375 -0.622,0.496 -0.244,0.121 -0.529,0.183 -0.847,0.183 -0.318,0 -0.604,-0.061 -0.848,-0.183 -0.243,-0.121 -0.453,-0.288 -0.621,-0.496 -0.169,-0.206 -0.297,-0.455 -0.38,-0.741 -0.082,-0.283 -0.123,-0.591 -0.123,-0.916 0,-0.325 0.041,-0.634 0.123,-0.916 0.084,-0.287 0.212,-0.536 0.38,-0.742 0.169,-0.207 0.377,-0.374 0.621,-0.496 0.244,-0.121 0.529,-0.182 0.848,-0.182 0.319,0 0.603,0.061 0.847,0.182 0.244,0.122 0.453,0.289 0.622,0.496 0.169,0.206 0.297,0.457 0.379,0.742 0.082,0.284 0.123,0.592 0.123,0.916 0,0.324 -0.041,0.633 -0.123,0.916 v 0 z"
         id="path7"
         style="fill:#101820;stroke-width:0.108606" />
      <path
         class="cls-1"
         d="m 95.432,9.623 c -0.301,0 -0.544,0.059 -0.724,0.176 -0.173,0.112 -0.262,0.322 -0.262,0.624 v 4.868 l -0.033,0.01 c -0.07,0.02 -0.173,0.037 -0.306,0.051 -0.133,0.014 -0.329,0.022 -0.598,0.022 -0.715,0 -1.238,-0.156 -1.557,-0.464 -0.318,-0.308 -0.48,-0.759 -0.48,-1.343 V 9.779 C 91.413,9.759 91.303,9.73 91.16,9.693 90.979,9.647 90.78,9.624 90.571,9.624 c -0.3,0 -0.544,0.059 -0.724,0.176 -0.174,0.112 -0.262,0.322 -0.262,0.624 v 3.34 c 0,1.034 0.33,1.826 0.98,2.354 0.653,0.531 1.706,0.801 3.129,0.801 0.326,0 0.647,-0.009 0.952,-0.029 0.306,-0.018 0.583,-0.036 0.834,-0.056 0.256,-0.02 0.455,-0.04 0.612,-0.062 0.121,-0.018 0.201,-0.032 0.243,-0.04 V 9.779 C 96.269,9.757 96.141,9.724 96.023,9.693 95.842,9.647 95.644,9.624 95.434,9.624 v 0 z"
         id="path8"
         style="fill:#101820;stroke-width:0.108606" />
      <path
         class="cls-1"
         d="m 28.84,8.356 v 7.3 c 0,0.716 0.363,1.064 1.11,1.064 h 5.691 c -0.005,-0.875 -0.142,-1.716 -1.528,-1.716 h -3.294 v -2.24 h 4.213 c 0.035,-0.054 0.082,-0.163 0.14,-0.324 0.057,-0.163 0.086,-0.347 0.086,-0.554 0,-0.27 -0.067,-0.477 -0.2,-0.621 -0.133,-0.144 -0.368,-0.216 -0.705,-0.216 H 30.819 V 8.752 h 3.758 c 0.716,0 1.064,-0.363 1.064,-1.11 V 7.036 H 29.97 c -0.545,0 -1.13,0.531 -1.13,1.322 v 0 z"
         id="path9"
         style="fill:#101820;stroke-width:0.108606" />
      <path
         class="cls-1"
         d="M 87.747,9.58 C 86.689,9.448 85.777,9.401 85.161,9.386 V 9.384 C 85.077,9.382 84.991,9.381 84.905,9.381 84.867,9.381 84.831,9.38 84.793,9.38 H 84.51 c -0.119,10e-4 -0.184,0.003 -0.184,0.003 v 0.005 c -0.152,0.005 -0.3,0.018 -0.446,0.036 -0.351,0.045 -0.685,0.124 -0.992,0.245 -0.485,0.192 -0.908,0.462 -1.255,0.804 -0.347,0.342 -0.624,0.756 -0.821,1.229 -0.026,0.063 -0.046,0.129 -0.068,0.194 -0.149,0.425 -0.229,0.892 -0.229,1.396 0,0.583 0.086,1.11 0.255,1.566 0.169,0.451 0.409,0.836 0.714,1.145 0.308,0.31 0.677,0.548 1.101,0.707 0.429,0.163 0.906,0.244 1.419,0.244 0.289,0 0.552,-0.034 0.782,-0.1 0.235,-0.069 0.443,-0.148 0.616,-0.235 0.171,-0.086 0.309,-0.173 0.411,-0.256 0.11,-0.089 0.184,-0.154 0.228,-0.2 l 0.376,-0.391 v 0.725 c 0,0.425 -0.061,0.789 -0.183,1.082 -0.124,0.298 -0.299,0.547 -0.519,0.74 -0.22,0.194 -0.487,0.333 -0.794,0.414 -0.521,0.138 -1.222,0.154 -1.877,0.044 -0.281,-0.048 -0.531,-0.103 -0.741,-0.161 -0.17,-0.047 -0.318,-0.094 -0.44,-0.138 -0.052,-0.028 -0.094,-0.051 -0.125,-0.071 0,0 -0.005,-0.002 -0.006,-0.003 H 81.73 c -0.117,0.049 -0.229,0.133 -0.336,0.252 -0.115,0.125 -0.189,0.279 -0.221,0.459 -0.013,0.078 -0.016,0.154 -0.006,0.225 0.003,0.018 0.006,0.035 0.01,0.052 v 0 0.003 c 0.004,0.019 0.009,0.037 0.016,0.055 -0.001,0.001 -0.002,0.003 -0.003,0.005 0.013,0.049 0.041,0.123 0.096,0.21 0.053,0.084 0.134,0.18 0.252,0.276 0.245,0.198 0.656,0.396 1.345,0.487 v 0 c 0.251,0.034 0.504,0.057 0.756,0.069 1.31,0.063 2.603,-0.194 3.529,-1.111 0.005,-0.005 0.009,-0.009 0.015,-0.015 0.035,-0.035 0.068,-0.068 0.101,-0.099 0.332,-0.345 0.6,-0.782 0.794,-1.3 0.208,-0.559 0.315,-1.238 0.315,-2.019 v -0.39 c 0,0 0,-0.003 0.002,-0.003 V 9.673 C 88.353,9.664 88.276,9.649 88.152,9.631 88.04,9.614 87.899,9.599 87.746,9.584 v 0 z m -1.331,3.622 c 0,0.62 -0.415,2.272 -2.016,2.272 -0.578,0 -1.061,-0.174 -1.436,-0.516 -0.385,-0.349 -0.58,-0.877 -0.58,-1.566 0,-1.252 0.719,-2.641 3.538,-2.302 0.158,0.019 0.323,0.042 0.494,0.078 z"
         id="path10"
         style="fill:#101820;stroke-width:0.108606" />
    </g>
    <g
       id="g12"
       transform="matrix(2.4361704,0,0,2.4361704,-18.51702,70.858681)"
       style="stroke-width:0.108606">
      <path
         class="cls-2"
         d="M 23.332,11.098 C 22.9,11.045 22.492,10.988 22.103,10.928 20.878,10.717 18.931,10.277 16.811,9.416 14.49,8.474 11.741,6.938 10.453,5.389 9.952,4.771 9.652,4.158 9.657,3.586 c 0,0 -0.356,-2.907 4.765,-1.32 0.025,0.053 1.799,5.152 7.892,5.838 0.376,0.042 0.743,0.007 0.782,-0.187 C 21.464,3.313 17.077,0.011 11.913,0 8.663,-0.007 5.715,1.291 3.565,3.4 3.512,3.458 3.459,3.515 3.408,3.572 3.121,3.898 2.344,4.816 2.339,5.875 2.334,7.148 3.815,8.268 5.624,9.162 h 0.011 c 0,0 4.049,1.987 6.89,2.621 v 0 c 0.154,0.028 0.172,0.061 0.173,0.103 -0.001,0.041 -0.02,0.074 -0.173,0.102 v 0 c -2.841,0.635 -6.89,2.621 -6.89,2.621 H 5.624 c -1.809,0.894 -3.29,2.014 -3.285,3.287 0.005,1.059 0.782,1.977 1.069,2.303 0.051,0.057 0.104,0.115 0.157,0.172 2.15,2.109 5.098,3.407 8.348,3.4 5.163,-0.011 9.551,-3.313 11.182,-7.917 -0.038,-0.195 -0.407,-0.23 -0.782,-0.187 -6.092,0.687 -7.866,5.785 -7.892,5.838 -5.121,1.586 -4.765,-1.32 -4.765,-1.32 -0.005,-0.571 0.295,-1.184 0.796,-1.803 1.288,-1.548 4.037,-3.085 6.358,-4.027 2.121,-0.861 4.067,-1.302 5.292,-1.512 0.388,-0.06 0.797,-0.117 1.229,-0.17 0.156,-0.016 0.359,-0.072 0.411,-0.306 0.029,-0.172 0.038,-0.315 0.038,-0.482 0,-0.167 -0.009,-0.31 -0.038,-0.482 -0.053,-0.234 -0.255,-0.291 -0.411,-0.306 v 0 z"
         id="path11"
         style="fill:#fa5500;stroke-width:0.108606" />
      <path
         class="cls-2"
         d="m 6.996,11.882 c 0,-0.067 -0.156,-0.111 -0.156,-0.11 v 0 C 6.083,11.503 5,11.065 4.082,10.624 2.424,9.759 1.117,8.697 1.12,7.502 1.12,7.397 1.019,7.381 0.968,7.381 0.88,7.381 0.828,7.521 0.828,7.521 0.297,8.864 0.003,10.329 0,11.863 v 0.047 c 0.003,1.533 0.297,2.998 0.828,4.342 0,0 0.053,0.14 0.14,0.14 0.05,0 0.152,-0.016 0.152,-0.121 C 1.117,15.075 2.424,14.014 4.082,13.149 5,12.707 6.083,12.27 6.84,12.001 v 0 c 0,0 0.156,-0.044 0.156,-0.111 v -0.007 0 z"
         id="path12"
         style="fill:#fa5500;stroke-width:0.108606" />
    </g>
  </g>
</svg>
